<svg width="500" height="500" viewBox="0 0 500 500" fill="none" xmlns="http://www.w3.org/2000/svg">
<g clip-path="url(#clip0)">
<path d="M180 238C90.3167 221.837 53.0855 193.636 6 115V377C53.0855 298.364 90.3167 270.163 180 254C54 327.5 133.5 449 233 440.5C269.37 439.885 294.42 432.136 317.057 413.5C206.5 339 194.5 155.5 322.246 83C298.211 61.0997 272.17 52.1624 233 51.5C133.5 43 54 164.5 180 238Z" fill="#88AACC"/>
<path d="M479.5 249.5C419.5 224.5 408.5 199 370 144C352.86 117.233 337.983 97.3383 322.246 83C194.5 155.5 206.5 339 317.057 413.5C334.761 398.925 350.988 377.69 370 348C408.5 293 419.5 274.5 479.5 249.5Z" fill="#F8FFD9"/>
<path d="M6 115L12.0057 111.404L-1 89.6834L-1 115H6ZM180 238L178.758 244.889L183.527 231.954L180 238ZM233 51.5L232.404 58.4746L232.642 58.495L232.882 58.499L233 51.5ZM370 144L364.105 147.775L364.183 147.896L364.265 148.014L370 144ZM479.5 249.5L482.192 255.962L497.7 249.5L482.192 243.038L479.5 249.5ZM6 377H-1V402.317L12.0057 380.596L6 377ZM180 254L183.527 260.046L178.758 247.111L180 254ZM233 440.5L232.882 433.501L232.642 433.505L232.404 433.525L233 440.5ZM370 348L364.265 343.986L364.183 344.104L364.105 344.225L370 348ZM322.246 83L326.961 77.8257L322.246 83ZM317.057 413.5L321.506 418.904L321.506 418.904L317.057 413.5ZM-0.00569502 118.596C23.7273 158.232 45.3988 185.897 72.9514 205.62C100.544 225.371 133.416 236.718 178.758 244.889L181.242 231.111C136.9 223.12 106.316 212.285 81.1002 194.236C55.8451 176.158 35.3582 150.405 12.0057 111.404L-0.00569502 118.596ZM183.527 231.954C153.008 214.151 135.616 193.848 127.625 174.038C119.659 154.293 120.773 134.421 128.368 116.766C143.684 81.1642 185.516 54.4691 232.404 58.4746L233.596 44.5254C180.984 40.0309 133.316 69.8358 115.507 111.234C106.54 132.079 105.184 155.832 114.641 179.275C124.071 202.652 143.992 225.099 176.473 244.047L183.527 231.954ZM364.265 148.014C383.174 175.026 396.053 195.907 411.536 212.739C427.404 229.99 446.051 243.146 476.808 255.962L482.192 243.038C452.949 230.854 436.096 218.76 421.839 203.261C407.197 187.343 395.326 167.974 375.735 139.986L364.265 148.014ZM12.0057 380.596C35.3582 341.595 55.8451 315.842 81.1002 297.764C106.316 279.715 136.9 268.88 181.242 260.889L178.758 247.111C133.416 255.282 100.544 266.629 72.9514 286.38C45.3988 306.103 23.7273 333.768 -0.00569502 373.404L12.0057 380.596ZM176.473 247.953C143.992 266.901 124.071 289.348 114.641 312.725C105.184 336.168 106.54 359.921 115.507 380.766C133.316 422.164 180.984 451.969 233.596 447.475L232.404 433.525C185.516 437.531 143.684 410.836 128.368 375.234C120.773 357.579 119.659 337.707 127.625 317.962C135.616 298.152 153.008 277.849 183.527 260.046L176.473 247.953ZM375.735 352.014C395.179 324.237 407.101 306.565 421.564 292.522C435.765 278.733 452.644 268.273 482.192 255.962L476.808 243.038C446.356 255.727 427.735 267.017 411.811 282.478C396.149 297.685 383.321 316.763 364.265 343.986L375.735 352.014ZM13 377V115H-1V377H13ZM232.882 58.499C270.775 59.1398 295.038 67.679 317.532 88.1743L326.961 77.8257C301.383 54.5203 273.565 45.185 233.118 44.501L232.882 58.499ZM317.532 88.1743C332.57 101.876 347.049 121.139 364.105 147.775L375.895 140.225C358.671 113.327 343.396 92.8001 326.961 77.8257L317.532 88.1743ZM233.118 447.499C270.603 446.865 297.329 438.808 321.506 418.904L312.607 408.096C291.511 425.464 268.137 432.905 232.882 433.501L233.118 447.499ZM321.506 418.904C340.093 403.602 356.802 381.592 375.895 351.775L364.105 344.225C345.175 373.788 329.428 394.248 312.607 408.096L321.506 418.904ZM318.791 76.9121C252.387 114.599 222.408 181.17 223.288 247.593C224.167 313.875 255.755 380.632 313.145 419.305L320.968 407.695C267.802 371.868 238.112 309.625 237.287 247.407C236.465 185.33 264.36 123.901 325.701 89.0879L318.791 76.9121Z" fill="black"/>
<circle r="18" transform="matrix(0 -1 -1 0 321 191)" fill="black" stroke="black" stroke-width="14"/>
</g>
<defs>
<clipPath id="clip0">
<rect width="500" height="500" fill="white"/>
</clipPath>
</defs>
</svg>
